<svg width="40" height="40" viewBox="0 0 40 40" fill="none" xmlns="http://www.w3.org/2000/svg">
<rect width="40" height="40" rx="12" fill="#FFF8E6"/>
<path d="M20.8332 16.6667C20.8332 14.3667 18.7832 12.5 16.2498 12.5C13.7165 12.5 11.6665 14.3667 11.6665 16.6667H13.3332L14.1665 15.8333L14.9998 16.6667H18.3332M20.8332 15.95C21.677 15.3261 22.7004 14.9928 23.7498 15C26.2832 15 28.3332 16.8667 28.3332 19.1667H25.8332L24.9998 18.3333L24.1665 19.1667H21.6665" stroke="#D4AF37" stroke-width="1.66667" stroke-linecap="round" stroke-linejoin="round"/>
<path d="M14.9084 18.0919C13.1167 19.8836 12.9917 22.6502 14.6167 24.2836L18.1501 20.7419L18.7334 20.1586L19.3251 19.5669L21.0917 17.8002C19.4667 16.1669 16.7001 16.3002 14.9084 18.0919" stroke="#D4AF37" stroke-width="1.66667" stroke-linecap="round" stroke-linejoin="round"/>
<path d="M19.1668 22.9165C19.5835 24.9998 19.0252 26.6665 18.3335 28.3332H21.6668C23.3335 23.7498 21.2502 18.3332 20.8335 16.6665" stroke="#D4AF37" stroke-width="1.66667" stroke-linecap="round" stroke-linejoin="round"/>
</svg>
