<svg width="40" height="40" viewBox="0 0 40 40" fill="none" xmlns="http://www.w3.org/2000/svg">
<rect width="40" height="40" rx="12" fill="#FFF8E6"/>
<path d="M18.3335 19.9998H21.6668M18.3335 16.6665H21.6668M21.6668 27.4998V24.9998C21.6668 24.08 20.92 23.3332 20.0002 23.3332C19.0803 23.3332 18.3335 24.08 18.3335 24.9998V27.4998" stroke="#D4AF37" stroke-width="1.66667" stroke-linecap="round" stroke-linejoin="round"/>
<path d="M14.9998 18.3335H13.3332C12.4127 18.3335 11.6665 19.0797 11.6665 20.0002V25.8335C11.6665 26.754 12.4127 27.5002 13.3332 27.5002H26.6665C27.587 27.5002 28.3332 26.754 28.3332 25.8335V17.5002C28.3332 16.5797 27.587 15.8335 26.6665 15.8335H24.9998" stroke="#D4AF37" stroke-width="1.66667" stroke-linecap="round" stroke-linejoin="round"/>
<path d="M15 27.5V14.1667C15 13.2462 15.7462 12.5 16.6667 12.5H23.3333C24.2538 12.5 25 13.2462 25 14.1667V27.5" stroke="#D4AF37" stroke-width="1.66667" stroke-linecap="round" stroke-linejoin="round"/>
</svg>
