<svg width="32" height="32" viewBox="0 0 32 32" fill="none" xmlns="http://www.w3.org/2000/svg">
<rect width="32" height="32" rx="16" fill="#FFD550"/>
<path d="M20.35 21.4L19 15.25L21.625 12.625C22.75 11.5 23.125 10 22.75 9.25C22 8.875 20.5 9.25 19.375 10.375L16.75 13L10.6 11.65C10.225 11.575 9.925 11.725 9.775 12.025L9.55 12.4C9.4 12.775 9.475 13.15 9.775 13.375L13.75 16L12.25 18.25H10L9.25 19L11.5 20.5L13 22.75L13.75 22V19.75L16 18.25L18.625 22.225C18.85 22.525 19.225 22.6 19.6 22.45L19.975 22.3C20.275 22.075 20.425 21.775 20.35 21.4" stroke="black" stroke-width="1.5" stroke-linecap="round" stroke-linejoin="round"/>
</svg>
